<svg xmlns="http://www.w3.org/2000/svg" viewBox="0 0 1200 800">
  <defs>
    <clipPath id="clippath">
      <rect width="1200" height="800" style="fill:none" />
    </clipPath>
  </defs>
  <rect id="Background" width="1200" height="800" style="fill:#fff4a5" />
  <g id="Graphic_Elements" style="clip-path:url(#clippath)">
    <path
      d="m874.05,322.6c23.79-22.16,52.17-39.4,69.76-67.78,27.93-45.06,19.15-100.55,13.07-150.07-6.08-49.52-3.62-111.31,35.32-144.72,32.48-27.87,77.02-23.01,110.4-49.33,47.27-37.27,50.46-117.68,95.44-158.69,45.2-41.2,105.52-21.54,152.91.43,44.89,20.81,91.16,42.72,121.75,83.8,30.59,41.08,41.21,106.99,10.9,158.36-29,49.15-88.73,76.34-103.89,131.02-12.23,44.13,10.89,88.54-4.12,132.01-13.97,40.44-54.83,62.86-91.57,74.38-36.74,11.52-76.43,18.68-106.51,47.71-46.88,45.22-53.54,127.56-102.93,168.97-60.49,50.71-159.88,14.85-224.75,18.41-108.17,5.94-35.12-189.24,24.22-244.51Z"
      style="fill:#ffc7fe" />
    <path
      d="m741.03,369.39c55.52,4.64,96.47,44.92,153.58,53.74,91.06,14.06,152.69-94.78,241.43-120.73,92.41-27.03,195.53,66.44,174.08,157.78-15.65,66.61-77.14,107.32-114.32,163.45-41.52,62.69-65.38,101.13-131.87,150.38-79.54,58.93-160.69,112.1-247.22,160.2-99.49,55.31-201.9,108.6-310.45,135.64-111.65,27.81-226.98,14.86-334.15-.31-28.05-3.97-320.6-92.51-297.58-124.77,60.71-85.06,137.26-191.11,238.12-236.09,84.93-37.88,178.85-33.97,266.56-45.04,72.18-9.11,143.06-40.4,175.61-109.48,32.67-69.34,53.65-156.44,140.56-180.3,16.49-4.53,31.54-5.65,45.65-4.47Z"
      style="fill:#cea4ff" />
    <path
      d="m-342.55,829.8c-15.33-19.67-8.7-44.42,38.03-79.12,133.58-99.2,307.38-149.32,486.66-90.21,87.13,28.73,166.79,78.93,255.91,100.18,158.75,37.85,346.05,13.03,456.82-97.16,52.56-52.29,87.92-118.76,142.22-169.44,67.58-63.09,163.62-98.26,261.3-95.68,30.88.82,66.55,8.08,82.5,33.83,8.9,14.38,9.54,31.5,9.94,47.77,1.9,78.15,3.56,157.92-21.15,231.18-25.6,75.92-77.8,139.75-129.09,202-40.11,48.67-80.24,97.42-123.52,143.59-40.95,43.68-96.06,79.74-132.88,125.93-61.11,76.67-125.21,138.96-241.8,123.62-211.4-27.82-433.18-156.23-622.15-248.32-102.62-50.01-198.43-115.74-305.62-156.95-60.78-23.37-134.02-41.49-157.17-71.21Z"
      style="fill:#b8feec" />
    <path
      d="m302.63,821.89c18.23,45.96-22.12,92.03-59.38,124.65-11.03,9.66-22.87,19.67-37.51,22.33-13.98,2.54-28.27-2.04-41.8-6.56-64.47-21.53-128.93-43.06-193.4-64.59-60.9-20.34-124.37-42.25-168.76-87.89-15.97-16.42-29.1-35.78-36.16-57.27-15.98-48.61.41-100.74,16.72-148.89,18.52-54.67,44.77-116.84,101.74-132.13,132.58-35.58,147.23,132.78,195.54,210.18,49.86,79.87,189.91,56.75,222.99,140.17Z"
      style="fill:#ffc7fe" />
  </g>
</svg>